# xmcd
#
# Track frame offsets:
#	150
#	12435
#	25950
#	37799
#	50553
#	64467
#	76890
#	88278
#	101297
#	114557
#	128298
#	141651
#	154166
#	166503
#	177931
#	190317
#	203093
#	215712
#	229310
#	243214
#	255378
#	267676
#
# Disc length: 3716 seconds
#
# Revision: 1
# Processed by: cddbd v1.5.2PL0 Copyright (c) Steve Scherf et al.
# Submitted via: audiograbber 1.83.01
#
DISCID=320e8216
DTITLE=Ted Daffan - Country Hit Maker of the 1940's
DYEAR=1900
DGENRE=
TTITLE0=Born To Lose
TTITLE1=Deep Down Inside
TTITLE2=Too Far Gone
TTITLE3=Strangers Passing By
TTITLE4=So Dissatisfied
TTITLE5=No Letter Today
TTITLE6=The Straight And Narrow Way
TTITLE7=Bury Me Deep
TTITLE8=Long John
TTITLE9=Lonesome Highway
TTITLE10=My Fallen Star
TTITLE11=Are You Satisfied Now
TTITLE12=She Goes The Other Way
TTITLE13=I Told You So
TTITLE14=Because
TTITLE15=Always Alone
TTITLE16=Weary Steel Blues
TTITLE17=Now I Must Reap
TTITLE18=You'll always be around
TTITLE19=Shadow On My Heart
TTITLE20=Headin' Down he Wrong Highway
TTITLE21=Worried Mind
EXTD=
EXTT0=
EXTT1=
EXTT2=
EXTT3=
EXTT4=
EXTT5=
EXTT6=
EXTT7=
EXTT8=
EXTT9=
EXTT10=
EXTT11=
EXTT12=
EXTT13=
EXTT14=
EXTT15=
EXTT16=
EXTT17=
EXTT18=
EXTT19=
EXTT20=
EXTT21=
PLAYORDER=
